<?xml version="1.0" standalone="no"?>
<!DOCTYPE svg PUBLIC "-//W3C//DTD SVG 20010904//EN"
 "http://www.w3.org/TR/2001/REC-SVG-20010904/DTD/svg10.dtd">
<svg version="1.0" xmlns="http://www.w3.org/2000/svg"
 width="586.000000pt" height="586.000000pt" viewBox="0 0 586.000000 586.000000"
 preserveAspectRatio="xMidYMid meet">
<metadata>
Created by potrace 1.11, written by Peter Selinger 2001-2013
</metadata>
<g transform="translate(0.000000,586.000000) scale(0.100000,-0.100000)"
fill="#000000" stroke="none">
<path d="M1026 5820 c-18 -46 -46 -81 -58 -74 -4 3 -8 0 -8 -6 0 -11 -47 -4
-65 11 -6 4 -17 4 -25 -1 -9 -6 -20 -4 -29 3 -12 10 -13 9 -6 -3 7 -12 6 -13
-6 -4 -8 7 -41 13 -74 13 -80 2 -99 4 -106 15 -4 5 -15 5 -25 1 -11 -4 -39 -8
-64 -9 -25 -1 -51 -5 -57 -9 -9 -5 -11 -3 -7 7 7 19 -24 15 -36 -5 -8 -12 -13
-97 -10 -192 1 -38 -13 -67 -32 -67 -5 0 -6 5 -3 10 12 19 -14 10 -41 -15 -31
-29 -56 -32 -78 -9 -15 14 -16 13 -16 -6 0 -20 -4 -22 -45 -17 -25 2 -48 0
-51 -4 -2 -5 -15 -5 -27 -1 -28 10 -108 9 -125 -2 -8 -5 -12 -36 -12 -96 0
-49 -5 -92 -10 -95 -14 -9 -14 -1045 0 -1045 6 0 10 -7 10 -15 0 -16 5 -16
293 -19 80 -1 110 2 116 12 5 8 10 13 12 12 2 -1 17 4 34 10 16 6 57 11 90 10
33 -1 70 2 83 6 22 6 22 8 6 31 -11 18 -12 23 -3 18 8 -5 6 1 -4 12 -9 11 -15
27 -12 36 4 8 1 18 -5 22 -6 3 -9 1 -8 -6 2 -6 -3 -14 -10 -16 -7 -3 -11 0
-10 7 2 7 -8 16 -21 21 -21 8 -22 7 -11 -6 20 -24 6 -27 -18 -5 -14 13 -23 16
-28 9 -4 -8 -9 -7 -15 2 -14 23 -10 32 11 26 11 -3 20 -1 20 5 0 5 7 2 16 -7
15 -14 18 -14 33 0 22 19 32 19 25 0 -8 -19 10 -20 25 -1 7 8 24 17 38 21 21
5 24 8 12 16 -12 7 -11 9 4 9 9 0 17 -4 17 -10 0 -6 9 -6 26 0 17 7 39 7 65 0
22 -6 44 -8 49 -5 6 3 15 -5 21 -18 8 -17 17 -23 30 -20 11 3 19 0 19 -6 0 -7
4 -10 9 -7 5 3 12 -1 15 -10 3 -8 10 -13 15 -10 5 3 8 -8 7 -24 -1 -24 -5 -30
-23 -30 -12 0 -25 -4 -28 -10 -3 -5 -1 -10 6 -10 7 0 10 -3 6 -6 -9 -9 -48 22
-39 32 4 4 0 3 -9 -4 -9 -6 -19 -9 -22 -5 -4 3 -7 1 -7 -6 0 -7 6 -11 13 -8 8
3 13 -3 13 -14 0 -12 -4 -15 -10 -9 -6 6 -16 10 -23 10 -11 0 -11 -5 -2 -21 7
-14 17 -19 30 -16 10 3 21 2 24 -2 2 -4 18 -6 36 -3 22 3 27 7 18 13 -8 5 -10
9 -6 9 5 0 25 -13 45 -28 20 -16 55 -34 77 -40 40 -12 433 -26 642 -23 75 1
114 -3 119 -11 4 -6 7 -64 8 -130 l1 -119 -35 -9 c-19 -5 -57 -12 -85 -16 -61
-8 -75 -15 -143 -71 -30 -23 -64 -44 -75 -44 -12 -1 -65 -2 -117 -3 l-95 -1 3
-28 c1 -15 18 -54 37 -86 19 -33 35 -73 35 -90 0 -36 16 -81 29 -81 5 0 16 6
23 13 32 32 57 38 88 22 44 -23 56 -57 51 -144 -2 -36 -158 -191 -193 -191
-34 0 -68 35 -68 71 0 35 -26 45 -48 18 -9 -11 -36 -41 -59 -65 -56 -59 -64
-99 -48 -242 7 -69 6 -77 -20 -132 -23 -49 -35 -62 -67 -75 -21 -8 -49 -15
-61 -15 -29 0 -67 -39 -67 -68 0 -12 15 -42 34 -66 18 -24 37 -57 40 -72 4
-16 24 -50 43 -77 42 -57 62 -108 63 -159 l0 -37 -53 6 c-83 9 -118 -11 -161
-94 -28 -51 -52 -80 -98 -116 l-62 -48 -32 36 c-21 22 -42 35 -58 35 -28 0
-77 19 -88 35 -4 5 -8 7 -8 3 0 -4 -26 2 -57 13 -32 11 -80 22 -108 25 -63 8
-65 9 -65 42 0 17 15 44 40 72 22 25 40 49 40 54 0 5 9 40 21 78 19 64 24 72
81 113 56 42 65 45 122 45 66 0 131 14 142 31 21 35 -33 129 -74 129 -15 0
-28 15 -48 58 -15 31 -43 74 -62 94 -30 31 -34 41 -28 70 3 18 17 42 31 52 14
10 25 25 25 33 0 8 21 35 46 61 54 56 64 77 64 143 0 52 25 114 56 140 9 8 23
28 31 46 30 73 5 158 -64 219 -41 37 -39 60 9 87 21 12 28 21 21 28 -9 9 -103
12 -228 8 -22 0 -75 7 -117 17 -73 17 -79 17 -113 1 -31 -15 -34 -19 -22 -32
8 -8 18 -31 22 -52 8 -46 35 -93 52 -93 7 0 13 -4 13 -8 0 -5 25 -14 55 -21
41 -9 60 -20 75 -42 21 -28 20 -76 -1 -64 -5 4 -9 0 -9 -8 0 -17 -29 -19 -49
-3 -12 8 -13 8 -7 -2 5 -9 3 -12 -5 -11 -30 6 -56 -11 -54 -35 4 -37 -34 -50
-80 -26 -30 15 -50 18 -100 13 -147 -14 -206 67 -91 126 25 13 46 28 46 33 0
5 -4 7 -9 4 -19 -12 -19 23 0 40 10 9 19 23 19 31 0 7 5 13 10 13 6 0 22 26
35 57 29 64 26 69 -40 77 -138 17 -145 17 -145 1 0 -8 -4 -15 -9 -15 -6 0 -10
-53 -10 -125 0 -80 3 -124 9 -120 6 4 10 -36 10 -109 0 -74 4 -116 10 -116 19
0 58 -44 73 -82 18 -43 11 -53 -45 -63 -31 -6 -38 -11 -38 -31 0 -13 -4 -24
-10 -24 -7 0 -10 -214 -10 -621 0 -411 3 -618 10 -614 6 4 10 -6 10 -24 0 -24
5 -30 28 -35 15 -3 51 0 81 7 l53 13 -56 48 c-57 48 -68 74 -42 95 19 16 44
16 83 0 26 -11 36 -11 60 1 15 8 36 15 45 16 28 2 51 -32 51 -76 0 -47 -21
-74 -68 -91 l-31 -12 14 -43 c11 -35 19 -44 37 -44 13 0 36 -7 51 -15 16 -8
38 -15 50 -15 11 0 29 -6 39 -14 17 -12 18 -16 4 -52 -14 -37 -17 -39 -61 -42
-55 -4 -78 -24 -60 -53 17 -27 15 -56 -6 -77 -10 -10 -22 -33 -28 -51 -13 -47
-37 -61 -64 -36 -21 19 -23 19 -52 2 -16 -9 -36 -17 -45 -17 -10 0 -13 -8 -11
-27 2 -18 -2 -27 -10 -26 -6 2 -12 -2 -12 -7 0 -6 -11 -10 -25 -10 -23 0 -25
-3 -25 -50 0 -44 3 -50 21 -50 14 0 19 -5 17 -17 -4 -18 -10 -19 -40 -8 -14 5
-18 2 -18 -14 0 -12 5 -21 10 -21 14 0 12 -27 -2 -33 -7 -3 2 -6 20 -6 99 -3
349 -199 543 -427 84 -99 122 -165 113 -200 -3 -13 -10 -24 -16 -24 -5 0 -7
-4 -3 -9 3 -6 -3 -14 -12 -20 -10 -6 -14 -11 -10 -11 4 0 -13 -20 -38 -44 -25
-24 -45 -47 -45 -51 0 -13 -49 -53 -56 -46 -4 3 -4 0 0 -6 4 -8 -6 -26 -26
-45 -18 -18 -32 -36 -30 -41 1 -5 -2 -6 -6 -3 -5 3 -18 -6 -28 -20 -11 -14
-37 -35 -58 -46 -39 -20 -66 -41 -66 -52 0 -3 47 -6 105 -6 63 0 105 4 105 10
0 6 9 10 19 10 11 0 21 6 23 12 4 10 9 8 21 -3 9 -9 13 -19 10 -23 -4 -3 8 -6
25 -6 24 0 30 4 26 15 -4 8 -10 15 -16 15 -5 0 -6 -4 -3 -10 10 -16 -11 -12
-25 5 -9 11 -9 15 -1 15 7 0 10 4 6 10 -3 5 -13 6 -23 3 -12 -5 -9 1 8 21 66
76 124 129 128 117 3 -9 7 -9 18 0 8 7 14 7 14 1 0 -9 15 -13 85 -25 67 -12
125 -31 125 -40 0 -7 5 -5 10 3 6 9 10 10 10 3 0 -7 -8 -17 -17 -22 -17 -10
-16 -10 2 -12 49 -2 64 -7 80 -22 9 -9 12 -17 6 -17 -5 0 -16 6 -23 13 -7 7
-26 13 -43 15 -25 1 -27 0 -12 -9 10 -6 16 -17 13 -27 -3 -9 -2 -23 3 -31 10
-15 71 -23 71 -9 0 4 -5 8 -12 8 -6 0 -8 3 -5 7 4 3 16 -2 27 -12 11 -10 20
-14 20 -9 0 18 -16 32 -40 37 -14 2 -6 4 18 4 24 0 37 -4 31 -8 -9 -5 -8 -11
4 -23 17 -18 72 -22 82 -6 3 6 11 10 16 10 6 0 7 -4 4 -10 -9 -15 38 -12 54 3
11 9 12 9 7 0 -6 -10 449 -13 2217 -13 l2224 0 6 45 c4 24 4 59 0 76 -11 58
16 276 61 494 20 91 27 163 31 300 3 108 10 181 16 184 6 2 4 8 -4 15 -8 6
-19 48 -26 94 -7 45 -21 115 -31 155 -10 40 -16 75 -12 79 4 4 34 10 67 15
l60 8 3 755 c2 717 -2 848 -26 872 -12 12 -82 16 -75 4 4 -5 -1 -7 -10 -3 -17
6 -20 1 -20 -36 0 -10 -2 -16 -5 -13 -2 3 -12 -4 -22 -16 -19 -24 -38 -31 -96
-32 -24 0 -47 6 -56 15 -14 14 -15 26 -6 113 3 25 -2 31 -27 39 -28 9 -75 53
-75 69 0 23 26 57 56 73 19 10 35 23 36 29 0 6 2 16 2 21 4 27 42 65 74 75 59
18 102 43 108 64 9 27 -12 36 -89 36 -110 0 -175 40 -162 99 12 54 -13 60
-225 60 -197 -1 -270 2 -270 11 0 3 -14 7 -31 8 -17 1 -39 7 -48 12 -27 14
-119 6 -137 -12 -15 -14 -14 -18 4 -36 11 -11 35 -25 53 -30 93 -29 120 -34
148 -30 17 2 31 1 31 -3 0 -5 7 -5 17 -2 10 4 14 2 10 -4 -4 -6 4 -9 21 -7
191 22 238 14 286 -48 54 -72 67 -140 52 -273 -4 -33 -9 -76 -10 -95 -2 -19
-15 -73 -30 -119 -25 -81 -26 -120 -4 -148 21 -27 -59 -120 -126 -148 -28 -12
-31 -18 -30 -50 4 -73 -44 -144 -97 -145 -30 0 -49 32 -49 86 0 19 -7 61 -17
94 -15 56 -15 62 1 97 23 53 27 226 5 249 -18 17 -131 46 -141 36 -3 -4 -8
-16 -10 -27 -2 -11 -16 -26 -31 -33 -15 -7 -27 -19 -27 -27 0 -18 -39 -40 -50
-28 -5 4 -10 19 -12 33 -2 18 1 24 12 22 8 -1 -6 18 -32 43 -35 33 -55 45 -77
45 -17 0 -31 -4 -31 -9 0 -5 -14 -14 -30 -21 -43 -18 -76 -61 -58 -75 15 -11
16 -29 5 -62 -8 -23 -47 -40 -107 -47 -55 -6 -120 -26 -120 -36 0 -5 -9 -18
-20 -28 -17 -16 -26 -43 -32 -99 -1 -7 -6 -13 -11 -13 -5 0 -15 -7 -21 -15
-15 -20 -112 -31 -131 -15 -8 7 -15 26 -15 42 0 30 -25 78 -41 78 -5 0 -9 -18
-9 -41 0 -24 -4 -38 -10 -34 -6 4 -7 -1 -3 -11 5 -14 2 -16 -21 -10 -17 4 -25
3 -22 -3 4 -5 -1 -16 -9 -24 -16 -17 -20 -32 -6 -23 4 3 8 -2 8 -12 0 -36 3
-43 15 -36 7 4 2 -5 -11 -19 -29 -32 -33 -33 -24 -9 6 14 4 15 -9 5 -8 -7 -17
-11 -19 -8 -3 2 -5 -7 -5 -21 0 -18 4 -23 16 -19 8 3 4 -5 -10 -16 -14 -12
-23 -29 -22 -38 2 -9 1 -13 -3 -9 -8 8 -35 -15 -35 -30 0 -5 -8 -16 -17 -23
-14 -12 -16 -12 -8 0 5 10 4 12 -3 7 -7 -4 -12 -14 -12 -22 0 -20 -30 -65 -40
-59 -4 3 -13 -2 -20 -10 -7 -8 -10 -15 -7 -15 3 0 -6 -13 -21 -28 -15 -15 -30
-27 -33 -25 -4 2 -9 -4 -13 -12 -3 -8 -12 -12 -21 -9 -9 4 -15 0 -15 -9 0 -21
20 -33 30 -17 4 6 11 11 16 11 5 -1 9 4 9 11 0 18 21 20 35 3 8 -10 17 -12 24
-6 7 6 20 3 36 -10 15 -11 18 -17 8 -13 -10 3 -18 1 -18 -5 0 -10 21 -16 43
-12 11 2 1 -42 -17 -78 -14 -26 -14 -30 -1 -25 8 4 15 2 15 -4 0 -11 -18 -11
-38 2 -8 5 -12 3 -10 -6 2 -7 -3 -12 -10 -10 -8 1 -11 -1 -8 -6 3 -5 20 -7 38
-5 31 3 32 3 8 -7 -14 -6 -33 -9 -44 -6 -14 4 -16 2 -7 -7 15 -15 14 -40 -1
-32 -7 4 -2 -3 12 -14 20 -17 22 -21 8 -21 -13 0 -18 -8 -18 -26 0 -17 -4 -23
-12 -18 -10 6 -10 4 0 -7 14 -16 16 -33 2 -24 -5 3 -10 -3 -10 -14 0 -11 -5
-23 -10 -26 -5 -3 -10 -12 -10 -18 0 -7 4 -6 11 3 9 13 10 13 6 0 -2 -8 -11
-14 -21 -12 -9 2 -16 -4 -16 -13 0 -8 -9 -15 -21 -15 -11 0 -17 -5 -14 -10 4
-6 11 -7 17 -4 8 5 9 1 5 -10 -4 -10 -7 -21 -7 -24 0 -4 -5 0 -10 8 -9 13 -12
13 -24 -3 -14 -18 -10 -71 5 -61 5 3 1 -10 -10 -30 -15 -26 -17 -34 -6 -29 23
8 17 -9 -11 -36 -19 -19 -22 -26 -12 -33 10 -6 10 -10 -2 -17 -8 -5 -18 -7
-22 -5 -4 3 -8 -2 -8 -10 0 -9 -4 -16 -9 -16 -6 0 -21 -11 -35 -24 -18 -16
-39 -24 -68 -25 -24 -1 -70 -4 -102 -6 -67 -4 -96 3 -74 16 9 6 9 9 1 9 -7 0
-17 -9 -23 -20 -8 -14 -17 -19 -30 -15 -10 3 -21 1 -25 -4 -6 -11 -43 2 -87
31 -28 19 -42 23 -34 9 3 -5 -3 -11 -13 -14 -14 -3 -18 -1 -14 9 3 8 -2 17
-11 20 -22 9 -20 31 4 37 11 3 20 1 20 -4 0 -5 -4 -9 -10 -9 -5 0 -10 -4 -10
-8 0 -10 46 -9 56 1 5 4 1 5 -9 1 -12 -4 -17 -1 -17 10 0 20 14 20 34 0 15
-14 16 -14 16 0 0 9 5 16 11 16 5 0 7 5 3 12 -4 7 -3 8 4 4 7 -4 12 -3 12 3 0
5 -6 12 -12 14 -8 4 -9 6 -2 6 6 1 17 -6 24 -14 9 -10 9 -15 1 -15 -6 0 -11
-4 -11 -9 0 -5 9 -7 20 -4 15 4 19 12 16 29 -3 13 0 23 6 21 6 -1 13 4 15 11
4 9 -3 11 -24 7 -23 -5 -25 -4 -10 5 9 6 17 16 17 23 0 7 -4 6 -10 -3 -9 -13
-11 -13 -19 -1 -12 18 5 55 20 45 6 -3 3 -11 -8 -19 -15 -11 -12 -12 19 -2 29
9 34 14 21 20 -13 8 -13 11 -2 18 10 6 11 9 2 9 -7 0 -13 5 -13 11 0 6 7 9 15
5 8 -3 15 -1 15 4 0 6 -7 10 -16 10 -8 0 -12 5 -9 10 3 6 -4 10 -17 11 -22 0
-22 1 -3 8 11 5 24 6 28 4 5 -3 4 4 -2 15 -8 15 -8 22 2 25 10 5 -9 9 -29 6
-3 0 -15 11 -27 24 -12 14 -33 28 -46 32 -16 5 -20 10 -13 17 12 12 4 41 -8
33 -4 -3 -10 2 -14 10 -6 18 29 41 39 25 3 -5 13 -10 21 -10 8 0 13 4 10 9 -4
5 3 7 14 4 11 -3 20 -10 20 -17 0 -7 3 -7 8 2 8 12 17 15 81 28 14 3 28 7 33
10 5 3 20 -2 34 -11 25 -16 25 -16 22 6 -2 17 4 25 27 35 28 11 31 11 32 -7 1
-11 -5 -19 -15 -20 -10 0 -3 -7 16 -15 38 -17 43 -28 6 -14 -38 15 -40 13 -14
-15 13 -14 18 -25 11 -25 -7 0 -11 -8 -9 -17 1 -10 -5 -29 -14 -42 -20 -28
-14 -48 8 -26 9 8 12 20 8 26 -4 7 -3 9 4 5 5 -3 12 0 15 6 2 7 8 10 12 6 4
-4 -3 -17 -15 -30 -14 -15 -19 -30 -15 -43 4 -11 9 -30 12 -42 3 -13 12 -23
21 -23 12 0 13 3 4 12 -15 15 -16 38 -1 38 6 0 9 -6 6 -12 -2 -7 3 -21 11 -31
14 -16 14 -19 -4 -32 -18 -13 -18 -14 4 -8 21 5 23 10 18 44 -3 22 -1 39 5 41
6 2 12 17 13 33 1 17 5 36 9 42 5 8 3 13 -5 13 -7 0 -2 7 10 16 17 12 22 23
18 44 -3 22 -1 27 10 23 8 -3 17 2 20 11 3 9 10 14 14 11 4 -3 11 2 14 11 3 8
2 12 -4 9 -6 -3 -10 -1 -10 4 0 6 4 11 10 11 12 0 9 22 -4 31 -5 4 -6 15 -2
24 5 14 9 15 22 4 12 -10 15 -10 12 2 -2 9 4 13 15 11 21 -3 22 11 3 27 -8 7
-13 21 -11 31 2 13 -5 21 -23 28 -36 12 -76 -2 -68 -24 5 -14 4 -15 -8 -5 -11
9 -15 8 -20 -4 -4 -11 -2 -14 6 -9 7 4 8 3 4 -4 -9 -15 -36 -16 -36 -1 0 14
-24 -11 -33 -34 -4 -10 -28 -27 -54 -39 -27 -11 -49 -24 -51 -29 -2 -4 -10 -5
-17 -2 -8 3 -22 -2 -30 -11 -11 -10 -27 -14 -46 -11 -16 3 -29 1 -29 -3 0 -5
-11 -7 -24 -5 -17 4 -23 10 -19 22 3 10 2 12 -4 5 -21 -28 -97 -26 -86 2 3 8
0 14 -7 14 -6 0 -8 -4 -5 -10 3 -5 -3 -10 -14 -10 -12 0 -20 3 -20 8 4 21 -2
42 -12 42 -5 0 -7 -4 -4 -10 3 -5 1 -10 -5 -10 -6 0 -10 10 -8 23 2 16 -2 21
-14 19 -9 -1 -23 6 -30 17 -10 13 -24 18 -53 17 -33 -1 -40 2 -39 17 1 10 -3
16 -10 14 -6 -3 -10 -10 -8 -16 1 -7 -2 -10 -8 -6 -6 3 -8 10 -5 15 3 4 -2 11
-10 14 -13 4 -14 10 -5 26 9 16 8 18 -5 14 -8 -4 -17 1 -21 10 -3 9 -10 13
-15 10 -8 -5 -13 9 -10 28 0 4 -8 10 -19 13 -11 4 -20 11 -20 17 0 5 6 8 14 5
8 -3 17 1 20 9 3 8 1 14 -5 14 -6 0 -7 5 -4 10 5 8 12 7 23 -2 10 -8 13 -8 9
-1 -4 6 -1 14 5 17 7 4 -4 4 -25 2 -22 -3 -35 -1 -32 5 4 5 0 9 -7 9 -10 0
-10 2 1 9 11 7 11 9 0 13 -16 5 -2 28 18 28 11 0 14 -6 10 -21 -4 -15 -3 -19
5 -11 13 13 89 -63 82 -82 -3 -7 1 -13 9 -13 9 0 12 8 9 25 -3 17 -1 23 7 18
6 -4 8 -13 4 -19 -4 -7 2 -5 12 3 15 12 17 12 10 1 -6 -11 -4 -13 8 -8 9 3 19
2 22 -3 5 -9 35 -3 45 9 3 3 20 14 38 23 26 14 38 15 54 7 16 -8 23 -8 29 2 5
8 9 9 9 3 0 -10 49 -9 80 3 8 3 21 7 29 9 7 1 19 8 25 14 8 8 6 9 -6 5 -21 -8
-26 19 -6 31 7 5 8 3 3 -6 -6 -9 -4 -11 5 -5 10 6 10 10 -2 19 -8 6 -14 21
-13 33 1 12 -2 20 -6 17 -4 -2 -11 1 -15 7 -9 15 43 59 69 59 23 0 87 33 124
64 23 20 39 24 76 23 26 -1 47 1 47 4 0 9 62 5 77 -4 10 -6 11 -2 5 15 -10 27
7 67 26 60 17 -5 15 6 -9 44 -22 36 -29 40 -45 25 -16 -15 -74 -24 -74 -11 0
6 -4 9 -8 6 -4 -2 -9 4 -9 15 -1 11 3 17 9 13 6 -4 6 2 -1 15 -7 11 -14 21
-17 21 -3 0 -2 -4 1 -10 3 -5 1 -10 -4 -10 -6 0 -11 4 -11 9 0 13 -43 22 -54
11 -6 -6 -3 -17 8 -29 13 -15 14 -20 4 -24 -10 -4 -8 -10 6 -21 15 -12 16 -16
5 -16 -11 0 -11 -2 -1 -9 11 -7 11 -9 -2 -14 -9 -4 -15 -12 -14 -18 2 -7 -19
-18 -47 -26 -45 -12 -67 -16 -145 -28 -14 -2 -26 -4 -27 -6 -2 -1 -6 -2 -10
-4 -52 -14 -63 -18 -63 -26 0 -12 -27 -11 -35 1 -3 5 7 23 22 41 30 33 35 56
19 77 -5 7 -5 12 0 10 11 -4 112 54 112 65 1 30 15 87 23 87 5 0 9 6 9 13 0 8
9 24 19 36 28 32 7 91 -32 91 -19 0 -25 -18 -17 -55 8 -37 -18 -98 -38 -90 -7
3 -29 5 -48 5 -21 0 -33 4 -29 10 3 6 1 10 -5 10 -7 0 -10 -6 -7 -14 3 -8 -4
-21 -18 -30 -13 -8 -26 -29 -30 -46 -4 -16 -10 -32 -13 -34 -14 -8 -62 7 -62
19 0 11 -33 31 -80 48 -9 3 -5 6 10 6 29 1 14 21 -18 24 -11 0 -19 5 -16 9 3
4 12 4 22 1 9 -3 14 -3 11 1 -12 13 -61 17 -75 5 -8 -7 -17 -9 -21 -5 -3 3 -1
6 6 6 7 0 9 5 6 10 -4 6 -11 8 -16 5 -20 -13 -8 15 13 29 12 9 16 16 9 16 -8
0 -11 6 -7 15 3 9 -1 18 -9 21 -8 4 -15 14 -15 23 1 14 2 14 11 -1 5 -10 19
-23 30 -28 31 -17 19 12 -14 33 -30 18 -47 15 -47 -8 0 -8 -8 -20 -19 -27 -21
-15 -38 -98 -19 -98 6 0 9 -3 5 -6 -3 -3 -2 -17 3 -30 6 -15 6 -26 -1 -30 -6
-4 -4 -13 6 -24 17 -18 17 -62 0 -102 -4 -10 -3 -18 2 -18 5 0 10 -6 10 -13 0
-8 -10 -12 -27 -9 -19 3 -29 -1 -33 -13 -5 -10 -3 -14 5 -9 7 4 8 3 4 -4 -4
-7 -14 -12 -22 -12 -8 0 -14 -5 -14 -11 0 -6 7 -9 15 -5 8 3 15 1 15 -3 0 -9
-26 -23 -45 -25 -10 -1 -11 -35 -5 -128 3 -41 6 -46 21 -38 20 11 36 -14 17
-26 -7 -5 -8 -2 -3 6 5 9 4 11 -3 6 -18 -11 -14 -24 7 -31 13 -4 18 -12 14
-22 -4 -10 -2 -14 5 -9 6 3 13 2 17 -4 3 -5 -1 -10 -10 -10 -14 0 -14 -4 0
-36 13 -31 13 -35 0 -24 -8 6 -20 10 -27 7 -7 -2 -25 -1 -40 4 -22 6 -26 5
-20 -9 5 -15 4 -15 -11 -3 -9 7 -14 17 -11 22 3 5 0 9 -6 9 -19 0 -57 34 -52
48 2 6 -5 12 -15 13 -13 1 -11 3 7 9 14 4 19 8 12 9 -7 1 -10 6 -6 13 4 6 3 8
-3 5 -6 -4 -18 2 -28 13 -22 25 -36 26 -29 3 5 -15 4 -15 -4 -3 -6 8 -8 18 -5
24 3 5 -2 15 -12 23 -11 7 -13 13 -7 13 7 0 12 9 12 20 0 11 -5 20 -11 20 -5
0 -8 -4 -5 -8 3 -5 -1 -9 -9 -9 -10 0 -9 6 6 25 21 27 25 52 8 52 -5 0 -7 -4
-4 -10 3 -5 2 -10 -4 -10 -6 0 -7 -7 -4 -17 4 -10 2 -14 -5 -9 -6 3 -13 2 -17
-4 -11 -18 -21 -11 -38 26 -10 19 -12 32 -7 29 6 -4 18 1 26 11 9 11 12 13 8
5 -13 -25 -13 -61 0 -61 8 0 12 16 11 45 0 25 2 45 6 45 4 0 9 7 13 15 4 12 2
13 -13 5 -14 -7 -20 -6 -24 5 -4 9 -1 12 9 8 7 -3 14 0 14 6 0 6 -4 11 -10 11
-5 0 -7 7 -4 15 6 14 8 13 21 -2 9 -11 9 -7 -2 11 -9 16 -12 25 -6 22 6 -4 11
-3 11 3 0 13 -35 32 -44 24 -3 -3 -6 2 -6 13 -1 23 -24 56 -33 47 -4 -3 -7 -1
-7 6 0 8 -7 10 -20 6 -13 -4 -20 -2 -20 7 0 10 -2 10 -9 -1 -5 -8 -16 -11 -27
-7 -16 6 -16 7 0 19 15 11 14 13 -11 15 -15 1 -31 9 -36 17 -4 9 -12 13 -18
10 -5 -4 -9 0 -9 8 0 8 -8 18 -17 21 -15 6 -15 8 -3 16 10 7 11 10 2 10 -6 0
-12 3 -11 8 2 15 -14 52 -23 52 -5 0 -4 9 2 20 9 16 8 18 -6 13 -12 -4 -15 -1
-12 15 1 12 -5 27 -14 34 -19 15 -29 84 -11 81 6 -1 13 9 15 22 3 13 2 24 -1
23 -18 -2 -28 4 -28 16 0 8 8 13 19 11 10 -2 24 2 30 9 15 16 48 9 48 -10 0
-8 7 -14 15 -14 8 0 15 -5 15 -11 0 -5 4 -7 10 -4 16 10 52 -15 46 -31 -4 -11
3 -14 32 -13 20 2 43 7 51 13 11 9 13 8 9 -4 -3 -8 -15 -15 -26 -14 -12 0 -23
-4 -25 -11 -3 -7 7 -9 29 -7 27 3 33 9 36 31 3 26 3 26 90 26 48 0 90 -4 94
-8 15 -14 -18 -35 -76 -47 -61 -13 -65 -16 -54 -43 5 -13 10 -14 38 -2 18 8
42 11 54 9 13 -4 27 1 38 15 10 12 29 21 41 21 13 0 23 4 23 9 0 5 16 15 35
22 19 7 35 15 35 19 0 7 79 4 87 -4 12 -11 25 -6 20 8 -4 10 1 12 16 9 18 -4
19 -3 7 6 -13 9 -13 11 1 11 13 0 16 10 13 53 -3 61 -8 88 -24 116 -6 12 -9
21 -6 21 3 0 -1 15 -9 34 -8 18 -11 36 -8 40 4 3 2 6 -4 6 -5 0 -15 11 -21 24
-6 13 -29 34 -51 47 -22 12 -38 25 -36 28 2 4 -14 5 -35 3 -31 -3 -41 0 -52
17 -14 23 -34 28 -40 10 -2 -6 -17 2 -33 18 -15 15 -25 22 -20 14 6 -10 4 -12
-5 -6 -7 5 -25 9 -39 10 -34 2 -55 8 -62 18 -3 5 -13 1 -22 -7 -19 -20 -31
-21 -24 -2 4 10 0 12 -14 9 -10 -3 -26 0 -34 7 -12 10 -15 9 -15 -5 0 -10 8
-24 18 -31 16 -13 16 -14 -1 -8 -10 4 -23 18 -28 33 -8 20 -12 22 -19 11 -14
-21 -12 -32 3 -24 8 5 8 2 -2 -9 -7 -9 -19 -17 -25 -17 -6 0 -4 5 4 10 11 7
11 10 2 10 -9 0 -10 5 -3 19 9 17 8 18 -12 13 -20 -5 -21 -4 -8 14 14 17 13
18 -1 4 -9 -8 -18 -24 -20 -35 -2 -11 -10 -25 -18 -32 -13 -10 -13 -12 3 -18
9 -4 17 -11 17 -17 0 -5 -5 -6 -11 -2 -6 3 -16 0 -21 -7 -8 -11 -9 -10 -4 3 3
10 1 20 -4 23 -6 4 -10 13 -10 21 0 8 4 13 9 9 5 -3 12 -1 16 5 12 19 14 50 3
56 -7 4 -8 2 -4 -4 4 -7 2 -12 -4 -12 -6 0 -13 7 -16 15 -4 8 -11 12 -17 8 -5
-3 -7 -1 -3 5 3 6 2 13 -4 17 -6 4 -5 13 2 25 7 10 15 17 18 15 4 -2 7 2 7 10
0 8 -5 11 -11 7 -16 -10 -96 -11 -90 -1 3 5 16 9 30 9 13 0 24 5 24 11 0 5 -4
7 -10 4 -6 -3 -7 1 -4 10 5 12 10 13 17 6 17 -17 31 -13 17 4 -7 9 -8 15 -2
15 5 0 13 -7 16 -16 4 -10 13 -13 26 -9 21 7 28 -10 8 -18 -8 -3 -8 -6 -2 -6
13 -1 42 29 43 44 1 6 7 10 14 10 6 1 11 6 10 13 -2 7 4 9 14 5 10 -4 14 -2
10 4 -4 6 3 9 18 8 15 -2 22 1 19 9 -6 16 40 40 60 33 9 -4 15 -10 14 -14 -3
-9 5 -13 23 -13 6 0 9 6 6 14 -4 11 5 13 44 11 27 -1 49 2 49 7 0 5 5 6 10 3
6 -4 7 -11 4 -17 -4 -7 -2 -8 4 -4 7 4 12 2 12 -3 0 -6 8 -11 18 -11 13 0 14
2 4 9 -11 7 -11 9 1 14 9 3 20 -4 27 -19 14 -26 25 -30 35 -14 3 6 0 10 -7 10
-10 0 -9 3 2 10 9 6 17 5 22 -3 4 -7 12 -13 18 -13 5 -1 16 -2 23 -3 8 -1 8
-4 -3 -11 -9 -5 -19 -5 -27 2 -8 6 -16 8 -20 4 -4 -3 2 -12 12 -20 14 -10 15
-15 5 -21 -9 -5 -11 -4 -6 3 4 7 1 12 -7 12 -22 0 -28 -12 -14 -28 9 -13 9
-14 0 -8 -8 4 -13 1 -13 -8 0 -20 -14 -20 -30 -1 -11 13 -10 14 3 10 8 -4 17
-2 21 3 3 5 -5 8 -17 7 -18 -1 -22 -8 -23 -39 -1 -26 4 -40 17 -47 11 -6 19
-6 19 0 0 5 6 11 13 14 10 4 13 -2 9 -19 -2 -14 0 -24 7 -24 6 0 11 6 11 13 0
8 4 7 10 -3 9 -14 15 -6 10 15 -1 5 7 2 17 -8 14 -12 22 -14 30 -6 8 8 17 8
31 0 25 -14 43 -14 22 -1 -13 8 -12 10 3 10 12 0 16 4 11 13 -6 9 -4 9 8 -1
12 -10 22 -10 44 -1 16 7 34 13 39 14 6 0 22 6 38 13 24 10 29 17 26 39 0 4 8
10 18 14 15 7 15 8 -5 8 -20 1 -21 4 -12 21 6 11 7 20 3 20 -4 0 -2 5 5 12 17
17 15 26 -9 33 -11 4 -18 13 -15 20 7 19 -5 27 -21 14 -7 -6 -13 -7 -13 -3 0
10 28 30 45 33 6 0 10 -3 10 -8 0 -5 3 -12 8 -15 4 -3 5 -3 2 0 -2 4 2 19 10
34 8 15 12 30 8 33 -3 4 4 5 15 2 13 -2 25 3 31 12 8 15 10 15 26 0 22 -22 28
-21 15 2 -7 13 -7 22 0 26 5 3 10 0 10 -7 0 -7 12 7 26 32 14 25 29 46 34 48
4 2 14 23 22 48 7 25 22 51 33 57 29 15 46 35 44 49 -4 29 2 40 17 34 8 -3 13
-2 10 3 -3 5 1 11 9 15 8 3 15 10 15 16 0 6 -4 9 -9 5 -5 -3 -12 -2 -15 3 -7
12 9 33 27 36 9 1 26 11 38 22 15 13 23 15 26 7 4 -10 11 -9 33 2 39 20 48 19
52 -7 2 -17 10 -23 27 -23 13 0 26 -4 28 -10 1 -5 22 -9 46 -8 43 2 44 1 60
-45 10 -26 17 -58 17 -70 0 -17 8 -27 30 -35 25 -9 30 -17 30 -43 0 -17 7 -45
16 -63 9 -17 13 -39 10 -47 -3 -9 -3 -21 1 -27 4 -7 8 -18 9 -25 2 -8 10 -22
19 -33 10 -10 15 -24 12 -32 -3 -7 4 -19 14 -25 10 -7 19 -18 19 -25 0 -7 10
-23 23 -34 35 -33 57 -65 57 -86 0 -10 7 -31 15 -46 8 -16 12 -30 10 -33 -10
-9 17 -151 46 -243 18 -55 34 -107 37 -115 3 -12 6 -11 13 5 6 14 8 0 5 -43
-2 -35 -2 -61 2 -58 3 4 7 14 8 22 5 33 14 42 47 48 55 10 71 44 58 119 -11
61 -4 86 18 72 6 -3 9 -10 6 -15 -3 -5 -1 -11 4 -14 11 -7 14 -146 3 -146 -7
0 -42 -52 -42 -64 0 -3 9 -6 21 -6 14 0 26 13 40 46 14 31 25 44 35 40 9 -4
14 2 14 17 0 12 9 51 20 87 16 52 19 80 14 138 -6 63 -10 76 -35 96 -18 15
-36 22 -49 19 -23 -6 -63 -57 -53 -67 4 -4 0 -4 -10 0 -12 4 -16 2 -12 -8 3
-8 -4 -19 -19 -27 -13 -7 -30 -24 -37 -37 -13 -24 -29 -32 -29 -14 0 6 5 10
10 10 6 0 10 9 10 19 0 11 8 35 18 53 11 18 20 53 21 78 1 25 7 71 12 104 12
66 13 170 4 209 -6 23 -3 28 21 38 28 10 141 8 299 -6 33 -3 125 -10 205 -15
80 -5 156 -11 170 -14 68 -15 90 -17 90 -10 0 5 17 10 37 11 20 1 55 9 78 17
84 31 280 43 437 27 98 -11 305 -23 386 -23 65 0 61 -50 62 895 l0 857 -256 0
-256 0 8 -42 c13 -71 11 -88 -9 -130 -21 -41 -56 -71 -79 -67 -25 5 -60 -12
-54 -27 3 -9 1 -12 -4 -9 -6 3 -10 3 -11 -2 0 -4 -2 -16 -4 -26 -2 -9 1 -15 6
-11 5 3 6 10 3 16 -5 7 -2 8 5 4 7 -5 10 -14 8 -20 -3 -7 -1 -19 3 -26 12 -20
-39 -70 -71 -70 -14 0 -38 -11 -53 -25 -15 -14 -32 -25 -39 -25 -7 0 -6 -4 3
-10 12 -8 12 -10 -5 -10 -17 0 -17 -2 -5 -10 8 -5 10 -10 3 -10 -13 0 -12 -17
6 -48 10 -19 10 -26 -1 -40 -9 -11 -10 -14 0 -8 6 4 12 2 12 -4 0 -6 -8 -13
-18 -16 -52 -17 -92 -39 -92 -51 0 -12 -3 -11 -17 2 -11 11 -26 15 -44 11 -27
-5 -46 14 -33 35 3 5 0 9 -6 9 -7 0 -10 6 -7 14 3 7 0 19 -6 25 -8 8 -7 11 4
11 20 0 62 44 52 54 -5 4 -1 6 7 4 8 -2 15 4 15 12 0 8 7 14 14 12 7 -1 10 2
6 8 -4 6 -12 9 -18 8 -7 -1 -33 19 -59 46 -46 47 -53 64 -48 123 0 12 -8 39
-19 61 -26 51 -36 134 -23 190 l10 42 -744 0 -743 0 1 -22 c4 -57 -52 -159
-75 -139 -15 12 -83 18 -93 8 -9 -9 -12 -25 -18 -96 -2 -29 -10 -57 -16 -61
-9 -5 -9 -9 -1 -11 7 -3 -2 -18 -19 -37 -16 -18 -30 -30 -30 -25 0 4 -7 0 -14
-10 -8 -10 -18 -18 -22 -17 -5 1 -10 -4 -13 -11 -2 -6 1 -9 6 -6 12 7 11 -46
-1 -55 -6 -4 -4 -13 4 -22 7 -9 10 -19 7 -22 -3 -3 1 -17 8 -31 15 -28 4 -79
-21 -99 -8 -6 -11 -13 -8 -17 11 -11 -36 -18 -55 -8 -12 7 -22 7 -25 2 -3 -5
-16 -7 -29 -3 -32 8 -48 38 -50 95 -1 15 -5 27 -10 27 -5 0 -6 10 -2 23 3 12
8 29 9 37 1 8 8 26 15 39 7 13 9 21 4 18 -4 -3 -8 16 -8 42 -1 33 -7 56 -22
74 -12 16 -20 37 -17 50 2 12 6 37 9 55 2 19 7 37 10 42 10 16 -26 40 -60 40
-18 0 -35 -3 -37 -7 -1 -5 -17 -18 -35 -30 l-31 -22 -30 27 c-40 36 -62 82
-62 132 l0 40 -255 0 c-140 0 -255 -2 -255 -5 0 -4 7 -19 15 -34 8 -16 16 -39
19 -52 2 -13 9 -37 15 -52 6 -16 13 -64 16 -107 5 -77 5 -79 -22 -99 -49 -36
-54 -42 -46 -54 7 -13 -17 4 -54 37 -20 17 -26 18 -47 6 -22 -11 -29 -10 -65
19 -23 18 -41 38 -41 45 0 19 -32 16 -56 -6 -20 -18 -23 -18 -38 -3 -15 15
-16 15 -16 -3 0 -23 -62 -57 -89 -49 -10 2 -26 -2 -36 -9 -14 -10 -22 -11 -32
-3 -7 6 -13 8 -13 3 0 -5 -4 -4 -8 3 -4 6 -27 14 -52 17 -25 2 -47 5 -49 5 -2
1 0 8 3 17 3 8 2 12 -4 9 -6 -3 -10 -13 -10 -21 0 -8 -5 -14 -11 -14 -5 0 -7
-4 -4 -10 3 -5 0 -7 -8 -4 -8 3 -17 -2 -21 -11 -4 -13 -10 -14 -26 -5 -13 7
-20 7 -20 0 0 -5 -6 -10 -14 -10 -15 0 -29 27 -21 40 3 4 -2 11 -11 14 -8 3
-13 10 -9 16 3 5 -1 23 -9 39 -12 22 -15 54 -12 123 3 88 15 134 40 150 6 4
-55 8 -135 8 l-147 0 -16 -40z m2537 8 c33 -17 46 -39 47 -76 0 -71 -102 -112
-150 -60 -37 40 -23 95 33 128 37 23 41 24 70 8z m-2604 -379 c-11 -6 -10 -9
4 -14 12 -5 14 -12 8 -23 -5 -9 -5 -26 0 -39 7 -18 5 -25 -6 -28 -8 -3 -21 -7
-29 -9 -8 -3 -20 2 -26 9 -7 8 -16 13 -20 10 -5 -3 -11 -1 -14 4 -4 5 -2 13 4
16 8 5 8 11 0 20 -8 9 -6 14 6 19 13 5 14 9 5 20 -13 16 -3 20 52 22 18 1 24
-2 16 -7z m455 -17 c3 -5 -1 -9 -9 -9 -8 0 -12 4 -9 9 3 4 7 8 9 8 2 0 6 -4 9
-8z m-55 -30 c1 14 7 16 34 11 17 -3 37 -9 42 -13 17 -13 99 -14 129 -2 25 11
31 9 63 -18 19 -17 38 -28 43 -25 11 7 17 -18 19 -77 1 -57 -25 -88 -73 -88
-22 0 -27 3 -17 9 11 7 9 10 -10 13 -17 2 -30 15 -44 46 l-19 42 -59 0 c-73 0
-156 38 -140 64 8 12 9 16 12 44 2 15 3 14 11 -3 7 -17 9 -17 9 -3z m654 -44
c15 -11 27 -16 27 -12 0 4 3 5 6 2 3 -4 -3 -15 -14 -26 -21 -21 -77 -44 -86
-35 -3 4 -6 1 -6 -5 0 -8 -7 -9 -27 -1 -16 6 -44 13 -63 15 -19 3 -36 9 -38
14 -2 5 -10 6 -18 3 -8 -3 -14 -1 -14 5 0 5 18 9 39 8 22 -1 38 1 35 6 -3 4 0
8 7 8 7 0 9 3 5 7 -10 11 75 41 98 35 12 -3 33 -14 49 -24z m654 -23 c0 -8 -4
-12 -9 -9 -4 3 -8 0 -8 -7 0 -7 -2 -10 -5 -7 -7 7 5 38 14 38 4 0 8 -7 8 -15z
m2413 -5 c0 -5 -5 -10 -11 -10 -5 0 -7 5 -4 10 3 6 8 10 11 10 2 0 4 -4 4 -10z
m26 -36 c-9 -6 -14 -13 -11 -16 3 -2 -1 -5 -8 -5 -7 0 -13 8 -13 18 0 13 7 18
24 16 20 -1 21 -3 8 -13z m59 6 c-3 -5 -12 -10 -18 -10 -7 0 -6 4 3 10 19 12
23 12 15 0z m-17 -34 c-7 -8 -16 -12 -21 -9 -11 7 2 23 19 23 12 0 12 -2 2
-14z m27 -15 c3 -5 2 -12 -3 -15 -5 -3 -9 1 -9 9 0 17 3 19 12 6z m-2115 -5
c0 -2 -7 -7 -16 -10 -8 -3 -12 -2 -9 4 6 10 25 14 25 6z m1980 -20 c0 -3 -4
-8 -10 -11 -5 -3 -10 -1 -10 4 0 6 5 11 10 11 6 0 10 -2 10 -4z m-4114 -53
c-3 -4 4 -13 16 -20 15 -8 18 -12 8 -13 -10 0 -11 -3 -3 -8 16 -11 18 -32 5
-78 -16 -54 -36 -72 -57 -50 -9 9 -26 16 -38 16 -15 0 -18 3 -9 9 10 6 10 10
-3 21 -19 16 -19 25 0 44 9 9 11 17 5 21 -5 3 -10 12 -10 18 0 7 4 6 11 -3 9
-12 10 -11 6 8 -4 18 -1 22 20 22 13 0 21 4 18 10 -3 6 4 10 16 10 12 0 19 -3
15 -7z m1727 -35 c12 -6 45 -10 74 -9 56 2 62 -2 38 -25 -13 -14 -18 -14 -44
-1 -34 17 -47 11 -28 -11 8 -11 8 -14 0 -9 -6 4 -14 3 -18 -3 -3 -5 -14 -10
-23 -10 -18 0 -45 -34 -35 -44 4 -3 19 -6 35 -6 17 0 27 -4 23 -10 -4 -6 -14
-9 -23 -8 -10 2 -16 -3 -15 -12 3 -18 -44 -43 -53 -29 -6 10 -45 8 -189 -7
-41 -4 -67 -3 -62 2 5 5 10 7 11 4 1 -3 11 3 21 13 12 12 21 15 28 8 16 -16
40 15 32 41 -6 19 -5 21 6 11 14 -14 30 -17 28 -5 -4 24 6 33 46 43 28 7 47
18 50 30 4 10 11 19 16 19 6 0 17 7 25 15 18 18 29 19 57 3z m177 -43 c0 -10
-65 -45 -82 -45 -10 0 -18 7 -18 15 0 9 9 15 24 15 14 0 28 5 31 10 6 10 45
14 45 5z m116 -90 c22 -22 4 -24 -66 -8 -105 24 -115 34 -26 28 46 -4 84 -12
92 -20z m2139 -34 c54 -2 73 -6 82 -16 4 -4 2 -5 -4 -1 -7 4 -13 2 -13 -3 0
-6 6 -11 13 -11 13 0 42 -48 34 -57 -6 -5 -67 -15 -94 -15 -13 0 -23 -4 -23
-8 0 -5 -11 -3 -25 3 -14 7 -25 16 -25 20 0 5 -4 6 -9 3 -4 -3 -13 6 -19 19
-7 16 -8 26 -1 30 5 4 7 11 4 16 -4 5 -2 9 4 9 5 0 12 -6 15 -12 3 -7 4 -1 2
15 -2 19 0 25 8 18 6 -4 29 -9 51 -10z m-2166 -66 c23 -23 10 -26 -70 -16 -58
8 -77 7 -89 -4 -11 -10 -20 -11 -33 -4 -12 7 -22 6 -33 -5 -17 -18 -84 -22
-84 -6 0 6 4 10 8 10 5 0 19 9 32 20 25 22 38 24 59 11 8 -5 27 -3 48 5 19 8
38 12 43 9 5 -3 11 -1 14 4 8 12 87 -6 105 -24z m-339 -44 c0 -4 -11 -6 -25
-3 -14 2 -25 6 -25 8 0 2 11 4 25 4 14 0 25 -4 25 -9z m290 -81 c0 -5 -5 -10
-11 -10 -5 0 -7 5 -4 10 3 6 8 10 11 10 2 0 4 -4 4 -10z m35 0 c3 -5 -1 -10
-9 -10 -9 0 -16 5 -16 10 0 6 4 10 9 10 6 0 13 -4 16 -10z m520 -270 c-10 -11
-21 -17 -24 -14 -3 4 0 9 7 11 6 3 10 9 6 14 -3 5 3 9 12 9 16 0 16 -2 -1 -20z
m-57 -2 c-2 -6 -10 -14 -16 -16 -7 -2 -10 2 -6 12 7 18 28 22 22 4z m-443
-548 c-3 -5 3 -10 14 -10 11 0 23 -4 26 -10 3 -5 -1 -8 -9 -5 -9 3 -23 7 -32
10 -13 4 -12 25 2 25 3 0 2 -4 -1 -10z m-274 -148 c-31 -21 -51 -24 -44 -6 3
8 9 11 14 8 5 -3 17 0 26 5 28 16 31 12 4 -7z m-527 -25 c-3 -7 1 -4 10 7 16
19 42 13 29 -7 -4 -7 -8 -24 -9 -40 -1 -22 2 -26 17 -22 11 4 21 -1 28 -14 16
-29 13 -39 -4 -17 -15 19 -15 19 -16 -5 -1 -13 0 -28 1 -34 1 -5 2 -14 3 -18
1 -5 -8 -13 -21 -18 -15 -6 -21 -5 -17 1 4 6 0 12 -7 15 -14 6 -23 45 -10 44
21 -3 43 2 38 9 -3 4 -27 8 -55 7 -34 -1 -48 2 -42 9 5 6 7 21 5 34 -3 14 1
22 11 22 8 0 16 5 16 10 1 6 3 15 4 20 1 6 3 13 4 16 0 3 6 2 11 -1 6 -4 8
-12 4 -18z m566 13 c0 -5 -5 -10 -11 -10 -5 0 -7 5 -4 10 3 6 8 10 11 10 2 0
4 -4 4 -10z m-583 -137 c1 -16 -1 -22 -4 -15 -2 6 -9 10 -14 6 -5 -3 -9 4 -9
15 0 32 25 25 27 -6z m87 -78 c-4 -8 -11 -12 -16 -9 -6 4 -5 10 3 15 19 12 19
11 13 -6z m1894 6 c8 -1 12 -7 9 -13 -3 -11 -55 -13 -66 -3 -8 9 11 23 27 20
9 -2 23 -4 30 -4z m-91 -36 c0 -8 -4 -15 -9 -15 -10 0 -11 14 -1 23 9 10 10 9
10 -8z m-2006 -87 c1 -7 3 -22 4 -33 2 -17 -4 -21 -28 -23 -17 -2 -37 -8 -44
-14 -22 -18 -16 39 7 62 22 22 59 27 61 8z m524 -8 c-7 -11 40 -29 70 -26 18
3 23 0 16 -7 -12 -12 -25 -15 -101 -22 -30 -2 -56 -5 -57 -6 -2 -1 -12 -3 -23
-4 -11 -1 -21 -3 -22 -5 -2 -1 -11 -3 -21 -5 -15 -3 -16 -1 -6 12 9 11 10 16
1 22 -7 4 -8 12 -2 21 6 8 10 11 10 7 0 -4 11 -2 25 6 26 13 118 19 110 7z
m-307 -150 c14 0 21 -4 17 -11 -4 -5 -12 -8 -18 -6 -7 2 -20 -2 -29 -11 -13
-10 -18 -11 -18 -3 0 7 -4 9 -10 6 -5 -3 -10 2 -10 12 0 15 -2 16 -10 3 -8
-13 -10 -12 -10 3 0 19 15 23 25 7 11 -17 28 -11 20 8 -5 14 -4 15 6 5 7 -7
24 -13 37 -13z m292 -11 c0 -6 -4 -7 -10 -4 -5 3 -10 11 -10 16 0 6 5 7 10 4
6 -3 10 -11 10 -16z m-2274 -50 c3 -5 2 -18 -1 -30 -5 -16 -14 -19 -38 -17
-36 3 -47 27 -23 51 16 15 51 13 62 -4z m1924 -29 c0 -5 -5 -10 -11 -10 -5 0
-7 5 -4 10 3 6 8 10 11 10 2 0 4 -4 4 -10z m-133 -172 c6 -7 14 -31 18 -53 9
-54 23 -78 42 -71 9 4 17 -1 20 -11 3 -10 24 -34 48 -53 24 -19 46 -45 49 -56
3 -13 13 -21 23 -20 10 0 19 -8 21 -19 4 -16 2 -17 -11 -6 -14 11 -19 7 -37
-29 -34 -66 -92 -78 -137 -28 -15 17 -39 41 -52 52 -13 12 -31 29 -42 38 -10
9 -23 36 -29 60 -6 24 -17 55 -25 70 -23 40 -19 77 8 87 12 5 31 18 41 30 21
24 49 27 63 9z m105 -104 c-4 -23 -6 -24 -14 -10 -11 19 -3 50 11 42 4 -3 6
-17 3 -32z m764 -3 c-3 -5 1 -14 9 -21 21 -17 19 -25 -9 -38 -20 -9 -27 -7
-42 9 -10 11 -12 19 -6 19 7 0 12 -6 12 -12 1 -7 7 2 15 20 8 17 17 32 20 32
3 0 4 -4 1 -9z m-484 -123 c-9 -9 -15 -9 -24 0 -9 9 -7 12 12 12 19 0 21 -3
12 -12z m708 -8 c0 -5 -5 -10 -11 -10 -5 0 -7 5 -4 10 3 6 8 10 11 10 2 0 4
-4 4 -10z m889 -97 c-7 -10 -14 -20 -16 -22 -1 -2 -1 6 0 18 1 11 8 21 15 21
12 0 12 -3 1 -17z m247 -46 c20 -18 28 -35 31 -74 3 -31 1 -53 -6 -57 -13 -9
-211 51 -211 64 0 13 42 40 62 40 10 0 18 4 18 9 0 18 31 41 55 41 13 0 36
-10 51 -23z m-1316 -37 c0 -5 -5 -10 -11 -10 -5 0 -7 5 -4 10 3 6 8 10 11 10
2 0 4 -4 4 -10z m-96 -9 c15 -6 16 -9 5 -13 -8 -3 -20 1 -27 8 -14 15 -7 17
22 5z m-528 -46 c20 -31 11 -45 -29 -46 l-32 -2 35 -7 c29 -6 24 -8 -30 -8
-36 -1 -92 -3 -125 -4 -51 -3 -60 0 -63 15 -4 21 23 55 53 68 11 4 55 8 97 8
72 1 79 -1 94 -24z m-516 -25 c25 -13 38 -39 45 -84 l6 -35 -63 -19 c-63 -19
-63 -19 -75 2 -26 45 -8 110 37 133 30 15 27 15 50 3z m3046 -6 c21 -9 57 -29
81 -45 23 -16 53 -33 67 -39 14 -5 42 -24 63 -42 21 -19 65 -53 98 -78 33 -24
76 -55 95 -69 19 -15 54 -39 77 -55 58 -39 137 -124 163 -177 12 -24 41 -69
65 -99 23 -30 52 -75 65 -100 12 -25 31 -54 41 -65 12 -13 15 -25 10 -34 -7
-11 -14 -4 -29 26 -12 22 -30 51 -42 64 -11 13 -34 45 -51 72 -17 26 -41 53
-53 59 -11 6 -39 25 -60 42 -45 35 -90 64 -156 99 -25 13 -76 41 -115 62 -65
35 -351 158 -493 211 -146 54 -155 77 -58 147 54 38 166 48 232 21z m-1630
-19 c1 -8 -2 -13 -7 -9 -5 3 -9 12 -9 21 0 19 13 9 16 -12z m-26 7 c0 -5 -7
-9 -15 -9 -8 0 -12 4 -9 9 3 4 9 8 15 8 5 0 9 -4 9 -8z m-67 -23 c-8 -8 -13
-7 -18 2 -5 8 -4 10 3 5 7 -4 12 -2 12 5 0 7 3 9 7 6 4 -4 2 -12 -4 -18z m865
-138 c20 -43 23 -62 18 -100 -3 -25 -11 -48 -17 -50 -6 -2 -4 -10 6 -21 14
-15 14 -21 4 -38 -7 -12 -21 -23 -31 -25 -10 -3 -18 -11 -18 -17 0 -7 7 -10
15 -6 8 3 15 1 15 -4 0 -6 -4 -10 -9 -10 -4 0 -6 -11 -3 -25 2 -14 7 -23 11
-21 4 3 7 -3 7 -13 0 -10 -6 -18 -13 -18 -8 0 -13 13 -13 32 0 19 -8 39 -20
50 -11 10 -16 23 -12 29 4 6 7 71 8 144 1 115 -1 132 -14 127 -12 -4 -13 -3
-2 10 7 8 10 25 7 37 -6 22 -5 22 15 -2 11 -14 32 -49 46 -79z m-98 4 c-7 -8
-17 -15 -23 -15 -6 0 -2 7 9 15 25 19 30 19 14 0z m-2410 -14 c0 -13 -28 -22
-35 -11 -3 4 1 11 7 13 20 8 28 8 28 -2z m2310 -13 c0 -4 -4 -8 -9 -8 -5 0
-17 -3 -27 -7 -16 -6 -17 -5 -4 8 15 17 40 21 40 7z m-2410 -28 c0 -5 -2 -10
-4 -10 -3 0 -8 5 -11 10 -3 6 -1 10 4 10 6 0 11 -4 11 -10z m2394 -5 c-4 -8
-11 -12 -16 -9 -6 4 -5 10 3 15 19 12 19 11 13 -6z m106 -25 c0 7 3 11 6 7 3
-3 2 -13 -3 -22 -9 -15 -12 -14 -34 4 -19 17 -20 20 -5 14 15 -5 17 -3 12 8
-4 8 0 5 8 -5 11 -13 16 -15 16 -6z m-1041 -37 c0 -10 -3 -13 -5 -6 -3 7 -13
9 -22 6 -15 -4 -15 -3 -2 6 22 15 30 14 29 -6z m820 -66 c8 -10 7 -14 -4 -14
-8 0 -16 6 -19 14 -3 7 -2 13 3 13 5 0 14 -6 20 -13z m-174 -85 c-3 -3 -11 0
-18 7 -9 10 -8 11 6 5 10 -3 15 -9 12 -12z m335 -6 c0 -2 -7 -7 -16 -10 -8 -3
-12 -2 -9 4 6 10 25 14 25 6z m125 -16 c3 -5 1 -10 -4 -10 -6 0 -11 5 -11 10
0 6 2 10 4 10 3 0 8 -4 11 -10z m-470 -10 c3 -5 1 -10 -4 -10 -6 0 -11 5 -11
10 0 6 2 10 4 10 3 0 8 -4 11 -10z m475 -26 c0 -14 -3 -14 -15 -4 -8 7 -15 14
-15 16 0 2 7 4 15 4 8 0 15 -7 15 -16z m-480 -69 c-7 -9 -15 -13 -19 -10 -3 3
1 10 9 15 21 14 24 12 10 -5z m-254 -180 c-3 -8 -2 -15 3 -15 4 0 8 -7 8 -16
0 -15 -1 -15 -12 -1 -9 13 -15 14 -26 4 -7 -7 -5 -2 4 9 14 17 15 23 5 27 -8
3 -6 6 6 6 12 1 16 -4 12 -14z m-150 -111 c18 -14 18 -14 -6 -3 -31 14 -36 19
-24 19 6 0 19 -7 30 -16z m-11 -25 c0 -8 -12 -15 -26 -17 -23 -3 -26 0 -22 22
4 20 9 23 27 17 11 -5 21 -15 21 -22z m42 -25 c-3 -3 -12 -4 -19 -1 -8 3 -5 6
6 6 11 1 17 -2 13 -5z m-53 -28 c-3 -9 -10 -16 -15 -16 -6 0 -5 9 1 21 13 24
24 20 14 -5z m-1699 -1246 c11 -18 -1 -23 -72 -26 -216 -8 -383 -6 -383 5 0 4
82 12 183 17 100 5 201 10 224 12 23 1 44 -2 48 -8z m3225 -99 c0 -12 -51 -61
-59 -57 -5 3 -19 -6 -32 -20 l-23 -25 64 -59 c35 -32 62 -62 58 -65 -3 -3 -19
6 -34 21 -16 14 -46 40 -67 56 l-38 30 -55 -57 c-30 -31 -58 -54 -61 -51 -3 3
17 30 45 60 29 30 52 58 52 62 0 12 -32 44 -43 44 -18 0 -57 43 -57 62 0 31
23 20 71 -33 42 -48 47 -51 67 -38 12 8 25 21 27 30 3 9 17 29 31 44 20 22 27
25 39 15 8 -7 15 -15 15 -19z m0 -76 c0 -8 -7 -15 -15 -15 -8 0 -15 -7 -15
-16 0 -11 5 -14 16 -10 10 4 14 1 12 -6 -7 -20 -34 -21 -52 -3 -22 23 -20 44
7 55 33 13 47 12 47 -5z m-193 -25 c-5 -42 -19 -55 -46 -41 -38 21 -20 71 26
71 20 0 22 -4 20 -30z m93 -70 c0 -13 -5 -18 -15 -14 -9 4 -15 0 -15 -10 0
-10 6 -13 15 -10 8 4 15 1 15 -5 0 -21 -30 -24 -50 -6 -23 21 -25 36 -8 53 20
20 58 15 58 -8z m-3292 -6 c6 3 14 1 18 -5 4 -8 3 -9 -4 -5 -7 4 -12 2 -12 -3
0 -6 5 -11 11 -11 5 0 8 -4 4 -9 -3 -5 3 -12 12 -14 10 -3 6 -4 -9 -4 -15 1
-24 5 -22 9 7 12 -10 10 -22 -2 -16 -16 -47 -1 -34 16 7 7 18 10 26 7 8 -3 14
0 14 6 0 6 -5 11 -11 11 -5 0 -7 5 -3 11 5 8 9 8 14 -1 4 -7 12 -10 18 -6z"/>
<path d="M895 5400 c-3 -5 -2 -10 4 -10 5 0 13 5 16 10 3 6 2 10 -4 10 -5 0
-13 -4 -16 -10z"/>
<path d="M900 5371 c0 -5 8 -15 18 -22 15 -12 16 -12 5 2 -7 9 -10 19 -6 22 3
4 1 7 -5 7 -7 0 -12 -4 -12 -9z"/>
<path d="M840 5070 c0 -5 5 -10 11 -10 5 0 7 5 4 10 -3 6 -8 10 -11 10 -2 0
-4 -4 -4 -10z"/>
<path d="M2574 5090 c2 -16 20 -14 24 2 3 10 2 10 -6 -1 -7 -9 -11 -10 -15 -2
-4 7 -5 8 -3 1z"/>
<path d="M2150 3656 c0 -2 8 -10 18 -17 15 -13 16 -12 3 4 -13 16 -21 21 -21
13z"/>
<path d="M2870 2909 c0 -5 5 -7 10 -4 6 3 10 8 10 11 0 2 -4 4 -10 4 -5 0 -10
-5 -10 -11z"/>
<path d="M4330 156 c0 -8 5 -18 10 -21 6 -3 10 1 10 9 0 8 -4 18 -10 21 -5 3
-10 -1 -10 -9z"/>
<path d="M1120 50 c0 -5 5 -10 11 -10 5 0 7 5 4 10 -3 6 -8 10 -11 10 -2 0 -4
-4 -4 -10z"/>
<path d="M190 5489 c0 -5 5 -7 10 -4 6 3 10 8 10 11 0 2 -4 4 -10 4 -5 0 -10
-5 -10 -11z"/>
<path d="M3004 4048 c-3 -4 4 -8 15 -8 11 0 22 4 25 8 2 4 -4 8 -15 8 -11 0
-23 -4 -25 -8z"/>
<path d="M2365 3929 c-4 -6 -5 -12 -2 -15 2 -3 7 2 10 11 7 17 1 20 -8 4z"/>
<path d="M2527 3933 c-4 -3 -7 -11 -7 -17 0 -6 5 -5 12 2 6 6 9 14 7 17 -3 3
-9 2 -12 -2z"/>
<path d="M2990 3931 c0 -10 19 -25 25 -20 1 2 -3 10 -11 17 -8 7 -14 8 -14 3z"/>
<path d="M2596 3915 c-11 -8 -15 -15 -9 -15 6 0 16 7 23 15 16 19 11 19 -14 0z"/>
<path d="M2975 3900 c-3 -5 -5 -10 -3 -11 27 -6 39 -5 45 4 3 7 3 9 -2 5 -4
-4 -14 -3 -21 3 -8 7 -14 7 -19 -1z"/>
<path d="M2615 3890 c-3 -5 1 -10 9 -10 8 0 18 5 21 10 3 6 -1 10 -9 10 -8 0
-18 -4 -21 -10z"/>
<path d="M2290 3851 c0 -6 4 -12 8 -15 5 -3 9 1 9 9 0 8 -4 15 -9 15 -4 0 -8
-4 -8 -9z"/>
<path d="M2250 3840 c0 -5 5 -10 11 -10 5 0 7 5 4 10 -3 6 -8 10 -11 10 -2 0
-4 -4 -4 -10z"/>
<path d="M2563 3829 c-2 -23 3 -25 10 -4 4 8 3 16 -1 19 -4 3 -9 -4 -9 -15z"/>
<path d="M2246 3779 c2 -4 -5 -11 -17 -14 -14 -5 -25 -2 -30 6 -6 10 -9 10 -9
2 0 -18 16 -24 44 -17 27 6 43 31 20 31 -7 0 -11 -4 -8 -8z"/>
<path d="M3348 3733 c-16 -2 -28 -9 -28 -15 0 -7 -4 -7 -14 1 -7 6 -27 8 -47
5 -40 -7 -152 -45 -159 -54 -3 -3 -22 -14 -42 -23 -43 -20 -90 -78 -69 -85 11
-4 11 -6 0 -13 -8 -5 -9 -9 -3 -9 6 0 9 -10 7 -24 -3 -16 2 -28 15 -37 10 -8
25 -32 32 -54 13 -42 83 -114 111 -115 21 0 54 -31 54 -50 0 -8 6 -15 13 -15
8 0 19 -7 25 -15 13 -17 57 -25 57 -11 0 10 23 20 58 27 12 2 22 0 22 -6 0 -5
8 -2 18 8 11 9 17 22 15 27 -3 6 2 2 10 -7 13 -17 15 -16 25 6 12 27 5 41 -13
26 -7 -6 -26 -7 -43 -4 -27 6 -30 9 -28 43 0 20 6 37 14 37 6 1 21 2 31 3 11
0 26 8 35 16 8 9 18 16 20 16 3 0 23 7 43 16 21 9 45 17 53 18 41 5 70 25 70
50 0 14 -3 24 -7 23 -5 -1 -21 5 -38 12 -44 19 -179 17 -258 -4 -49 -13 -71
-15 -81 -7 -7 6 -16 7 -21 3 -4 -4 -1 3 6 16 8 12 19 22 25 22 6 0 19 10 30
21 41 47 102 65 216 64 90 -2 105 1 105 14 0 42 2 44 21 30 16 -12 16 -12 1 4
-10 12 -35 19 -75 22 -32 2 -74 8 -91 14 -21 6 -33 6 -33 0 0 -6 -7 -6 -19 1
-11 5 -23 9 -28 9 -4 -1 -20 -4 -35 -6z"/>
<path d="M2480 3700 c0 -5 5 -10 11 -10 5 0 7 5 4 10 -3 6 -8 10 -11 10 -2 0
-4 -4 -4 -10z"/>
<path d="M4176 3323 c-6 -14 -5 -15 5 -6 7 7 10 15 7 18 -3 3 -9 -2 -12 -12z"/>
<path d="M3315 3220 c-3 -5 1 -10 9 -10 9 0 16 5 16 10 0 6 -4 10 -9 10 -6 0
-13 -4 -16 -10z"/>
<path d="M2810 3214 c0 -15 27 -37 38 -31 4 3 13 2 20 -2 8 -5 8 -14 -3 -34
-10 -19 -10 -25 -2 -20 7 4 15 8 20 9 4 1 9 2 12 3 2 0 0 12 -5 25 -5 15 -5
27 2 34 6 6 6 12 -1 17 -7 4 -10 1 -9 -7 4 -16 -53 -11 -64 6 -6 8 -8 8 -8 0z"/>
<path d="M2445 3170 c-3 -6 1 -7 9 -4 18 7 21 14 7 14 -6 0 -13 -4 -16 -10z"/>
<path d="M2180 3159 c0 -5 5 -7 10 -4 6 3 10 8 10 11 0 2 -4 4 -10 4 -5 0 -10
-5 -10 -11z"/>
<path d="M4071 3124 c0 -11 3 -14 6 -6 3 7 2 16 -1 19 -3 4 -6 -2 -5 -13z"/>
<path d="M4040 3110 c-9 -6 -10 -10 -3 -10 6 0 15 5 18 10 8 12 4 12 -15 0z"/>
<path d="M3286 2893 c-6 -14 -5 -15 5 -6 7 7 10 15 7 18 -3 3 -9 -2 -12 -12z"/>
<path d="M4175 2887 c-10 -25 -2 -50 18 -53 27 -4 33 25 9 49 -19 18 -22 19
-27 4z"/>
<path d="M2706 2393 c18 -18 2 -35 -25 -26 -12 3 -12 2 2 -7 9 -6 15 -15 12
-20 -3 -4 2 -10 9 -13 9 -4 15 1 15 11 0 9 3 28 6 42 5 21 3 26 -14 27 -19 2
-20 0 -5 -14z"/>
<path d="M2825 2350 c-4 -6 -11 -7 -17 -4 -7 4 -8 2 -4 -4 10 -16 23 -15 30 3
6 17 0 20 -9 5z"/>
<path d="M3774 2292 c3 -5 0 -13 -6 -15 -10 -4 -10 -8 1 -15 10 -7 11 -14 2
-31 -7 -12 -8 -21 -4 -20 4 1 15 1 23 0 12 -1 11 -5 -4 -16 -10 -8 -23 -12
-29 -8 -6 3 -7 1 -3 -5 10 -16 47 4 53 29 3 10 10 16 16 12 6 -3 7 -1 3 5 -5
9 -13 9 -29 0 -19 -10 -21 -9 -9 4 9 12 10 18 2 23 -6 4 -9 13 -6 21 3 7 0 16
-6 20 -6 4 -8 3 -4 -4z"/>
<path d="M3630 2265 c0 -9 9 -15 21 -15 18 0 19 2 5 15 -8 8 -17 15 -20 15 -3
0 -6 -7 -6 -15z"/>
<path d="M3735 2260 c3 -5 8 -10 11 -10 2 0 4 5 4 10 0 6 -5 10 -11 10 -5 0
-7 -4 -4 -10z"/>
<path d="M3681 2164 c0 -11 3 -14 6 -6 3 7 2 16 -1 19 -3 4 -6 -2 -5 -13z"/>
<path d="M3073 2137 c0 -12 1 -16 4 -8 5 11 7 11 14 0 5 -8 9 -9 9 -3 0 6 -6
16 -13 22 -10 8 -13 6 -14 -11z"/>
<path d="M3723 2121 c4 -28 12 -34 14 -11 1 11 -2 22 -8 25 -5 4 -8 -3 -6 -14z"/>
<path d="M3687 2109 c7 -7 15 -10 18 -7 3 3 -2 9 -12 12 -14 6 -15 5 -6 -5z"/>
<path d="M3125 2090 c3 -5 8 -10 11 -10 2 0 4 5 4 10 0 6 -5 10 -11 10 -5 0
-7 -4 -4 -10z"/>
<path d="M3546 1962 c-2 -4 -1 -14 4 -22 7 -11 9 -9 7 8 -1 24 -3 26 -11 14z"/>
<path d="M3286 1865 c-11 -8 -15 -15 -9 -15 6 0 16 7 23 15 16 19 11 19 -14 0z"/>
<path d="M3410 1871 c0 -5 -8 -12 -17 -14 -14 -4 -13 -5 4 -6 24 -1 39 14 23
24 -5 3 -10 2 -10 -4z"/>
<path d="M3525 1840 c3 -5 8 -10 11 -10 2 0 4 5 4 10 0 6 -5 10 -11 10 -5 0
-7 -4 -4 -10z"/>
<path d="M3402 1827 c-5 -7 -8 -22 -7 -35 2 -28 -11 -38 -31 -22 -11 10 -12
16 -3 27 8 9 2 8 -19 -4 -33 -18 -40 -37 -21 -48 6 -4 9 0 7 10 -2 10 3 19 10
21 7 1 8 0 2 -3 -16 -8 -1 -23 17 -16 11 4 14 3 9 -5 -5 -8 -2 -10 9 -6 12 5
16 2 13 -11 -2 -13 4 -18 25 -19 24 -2 26 0 12 10 -21 15 -3 28 27 18 17 -5
20 -3 15 11 -4 9 -7 19 -7 21 0 2 -7 4 -15 4 -8 0 -15 -4 -15 -10 0 -5 -4 -10
-9 -10 -12 0 -3 53 10 61 7 4 5 9 -4 12 -9 3 -20 0 -25 -6z"/>
<path d="M3485 1760 c-3 -6 1 -7 9 -4 18 7 21 14 7 14 -6 0 -13 -4 -16 -10z"/>
<path d="M3350 1715 c-10 -12 -10 -15 4 -15 9 0 16 7 16 15 0 8 -2 15 -4 15
-2 0 -9 -7 -16 -15z"/>
<path d="M3347 1682 c-15 -10 -25 -21 -21 -24 8 -9 65 22 59 33 -8 11 -5 12
-38 -9z"/>
<path d="M3150 1600 c0 -5 5 -10 11 -10 5 0 7 5 4 10 -3 6 -8 10 -11 10 -2 0
-4 -4 -4 -10z"/>
<path d="M3213 1595 c0 -8 4 -12 9 -9 5 3 6 10 3 15 -9 13 -12 11 -12 -6z"/>
<path d="M52 1548 c-24 -15 -32 -27 -32 -48 l0 -28 40 15 c33 13 40 21 40 44
0 38 -10 41 -48 17z"/>
<path d="M5824 144 c-4 -16 -13 -37 -22 -46 -8 -10 -12 -25 -8 -34 4 -11 -2
-26 -15 -41 l-22 -23 53 0 53 0 -6 76 c-6 84 -21 115 -33 68z"/>
<path d="M907 56 c-7 -19 29 -28 43 -11 8 9 8 15 0 20 -5 3 -10 1 -10 -4 0 -6
-5 -11 -11 -11 -5 0 -7 5 -4 10 3 6 2 10 -3 10 -6 0 -12 -6 -15 -14z"/>
<path d="M945 20 c-4 -6 -11 -7 -17 -4 -7 4 -8 2 -4 -4 7 -12 36 -5 36 9 0 12
-7 11 -15 -1z"/>
<path d="M858 3 c7 -3 16 -2 19 1 4 3 -2 6 -13 5 -11 0 -14 -3 -6 -6z"/>
</g>
</svg>
